# xmcd
# Copyright (C) 1995-1998 Ti Kan
#
# Track frame offsets:
#       150
#       19584
#       45348
#       60646
#       78483
#       100446
#       127243
#       142749
#       160447
#       188148
#       220030
#       233784
#       252031
#
# Disc length: 3636 seconds
#
# Revision: 0
# Processed by: cddbd v1.5.2PL0 Copyright (c) Steve Scherf et al.
# Submitted via: CD-Import v1.0
#
DISCID=aa0e320d
DTITLE=Sweet November - One
DYEAR=10
DGENRE=
TTITLE0=Down Under
TTITLE1=Rolling Stone
TTITLE2=Calling
TTITLE3=Star
TTITLE4=Why Don't You Come
TTITLE5=Waiting For This Moment
TTITLE6=You Get Back What You Give
TTITLE7=Welcome To My Life
TTITLE8=Under Your Skin
TTITLE9=Never Get Enough
TTITLE10=Happy
TTITLE11=Found Out
TTITLE12=Whatever
EXTD=
EXTT0=
EXTT1=
EXTT2=
EXTT3=
EXTT4=
EXTT5=
EXTT6=
EXTT7=
EXTT8=
EXTT9=
EXTT10=
EXTT11=
EXTT12=
PLAYORDER=
